<svg width="32" height="32" viewBox="0 0 32 32" xmlns="http://www.w3.org/2000/svg" role="img" aria-label="Gears">
  <rect width="32" height="32" rx="7" fill="#15171a"/>
  <g transform="translate(0 0) scale(0.78) translate(4.5 4.5)" fill="#0057b8">
    <rect x="14" y="0.5" width="4" height="6" rx="1"/>
    <rect x="14" y="0.5" width="4" height="6" rx="1" transform="rotate(45 16 16)"/>
    <rect x="14" y="0.5" width="4" height="6" rx="1" transform="rotate(90 16 16)"/>
    <rect x="14" y="0.5" width="4" height="6" rx="1" transform="rotate(135 16 16)"/>
    <rect x="14" y="0.5" width="4" height="6" rx="1" transform="rotate(180 16 16)"/>
    <rect x="14" y="0.5" width="4" height="6" rx="1" transform="rotate(225 16 16)"/>
    <rect x="14" y="0.5" width="4" height="6" rx="1" transform="rotate(270 16 16)"/>
    <rect x="14" y="0.5" width="4" height="6" rx="1" transform="rotate(315 16 16)"/>
    <circle cx="16" cy="16" r="9.5" fill="none" stroke="#0057b8" stroke-width="3"/>
    <circle cx="16" cy="16" r="3.4"/>
    <circle cx="16" cy="16" r="1.3" fill="#15171a"/>
  </g>
</svg>
