<svg width="32" height="32" viewBox="0 0 32 32" fill="none" xmlns="http://www.w3.org/2000/svg" role="img" aria-label="Gears">
  <g fill="#0057b8">
    <!-- eight gear teeth, rotated around the centre -->
    <g>
      <rect x="14" y="0.5" width="4" height="6" rx="1"/>
      <rect x="14" y="0.5" width="4" height="6" rx="1" transform="rotate(45 16 16)"/>
      <rect x="14" y="0.5" width="4" height="6" rx="1" transform="rotate(90 16 16)"/>
      <rect x="14" y="0.5" width="4" height="6" rx="1" transform="rotate(135 16 16)"/>
      <rect x="14" y="0.5" width="4" height="6" rx="1" transform="rotate(180 16 16)"/>
      <rect x="14" y="0.5" width="4" height="6" rx="1" transform="rotate(225 16 16)"/>
      <rect x="14" y="0.5" width="4" height="6" rx="1" transform="rotate(270 16 16)"/>
      <rect x="14" y="0.5" width="4" height="6" rx="1" transform="rotate(315 16 16)"/>
    </g>
  </g>
  <!-- gear body ring -->
  <circle cx="16" cy="16" r="9.5" fill="none" stroke="#0057b8" stroke-width="3"/>
  <!-- hub (solid; reads on both light and dark nav backgrounds) -->
  <circle cx="16" cy="16" r="3.4" fill="#0057b8"/>
</svg>
